<svg xmlns="http://www.w3.org/2000/svg" viewBox="0 0 256 256"><defs><linearGradient id="g" x1="24" y1="20" x2="232" y2="236" gradientUnits="userSpaceOnUse"><stop stop-color="#9B8CFF"/><stop offset=".52" stop-color="#6DE3D1"/><stop offset="1" stop-color="#3C7CFF"/></linearGradient></defs><rect x="9" y="9" width="238" height="238" rx="58" fill="#11121D" stroke="#2A2D46" stroke-width="6"/><path d="M58 78a20 20 0 0 1 20-20h100a20 20 0 0 1 20 20v100a20 20 0 0 1-20 20H78a20 20 0 0 1-20-20V78Z" fill="#181A2B" stroke="url(#g)" stroke-width="7"/><path d="M72 93h112M93 72v42M163 72v42M128 174V128M128 128l-31-26M128 128l31-26M128 150l-30 24M128 150l30 24" fill="none" stroke="url(#g)" stroke-width="8" stroke-linecap="round" stroke-linejoin="round"/><g fill="#F4F3FF" stroke="url(#g)" stroke-width="5"><circle cx="128" cy="174" r="10"/><circle cx="97" cy="102" r="9"/><circle cx="159" cy="102" r="9"/><circle cx="98" cy="174" r="9"/><circle cx="158" cy="174" r="9"/></g></svg>
