<svg xmlns="http://www.w3.org/2000/svg" viewBox="0 0 256 256" role="img" aria-labelledby="title desc">
  <title id="title">奖状生成器</title>
  <desc id="desc">A formal certificate with a red seal and gold ribbon</desc>
  <defs>
    <linearGradient id="paper" x1="0" y1="0" x2="1" y2="1">
      <stop offset="0" stop-color="#fff9e9"/>
      <stop offset="1" stop-color="#f2dfb2"/>
    </linearGradient>
    <linearGradient id="gold" x1="0" y1="0" x2="0" y2="1">
      <stop offset="0" stop-color="#f8d77b"/>
      <stop offset="1" stop-color="#b97720"/>
    </linearGradient>
    <filter id="shadow" x="-20%" y="-20%" width="140%" height="150%">
      <feDropShadow dx="0" dy="8" stdDeviation="7" flood-color="#24150c" flood-opacity=".28"/>
    </filter>
  </defs>
  <rect width="256" height="256" rx="52" fill="#8f2e2a"/>
  <path d="M0 196c40-26 83-25 125-5 46 22 86 22 131-2v67H0z" fill="#6e201f" opacity=".68"/>
  <g filter="url(#shadow)" transform="rotate(-4 128 124)">
    <rect x="43" y="42" width="170" height="146" rx="5" fill="url(#paper)" stroke="#d0a64e" stroke-width="5"/>
    <rect x="53" y="52" width="150" height="126" rx="2" fill="none" stroke="#d0a64e" stroke-width="1.5"/>
    <path d="M61 60h18M61 60v18M195 60h-18M195 60v18M61 170h18M61 170v-18M195 170h-18M195 170v-18" fill="none" stroke="#b47b27" stroke-width="3"/>
    <text x="128" y="91" text-anchor="middle" font-family="serif" font-size="19" font-weight="700" letter-spacing="5" fill="#8b2726">奖状</text>
    <path d="M78 106h100" stroke="#c69a43" stroke-width="2"/>
    <path d="M83 124h90M92 138h72" stroke="#9d8061" stroke-width="3" stroke-linecap="round" opacity=".68"/>
    <circle cx="164" cy="150" r="17" fill="#b52f2c" opacity=".95"/>
    <path d="M154 150c4-9 15-10 20-2-8-2-13 2-16 10" fill="none" stroke="#f4b3a0" stroke-width="2" opacity=".85"/>
  </g>
  <g transform="translate(128 198)">
    <path d="M-20-4-36 39l28-14 9 18 8-43z" fill="#d9a545" stroke="#8d5b1c" stroke-width="3" stroke-linejoin="round"/>
    <path d="M20-4 36 39 8 25l-9 18-8-43z" fill="#b97922" stroke="#8d5b1c" stroke-width="3" stroke-linejoin="round"/>
    <circle r="21" fill="url(#gold)" stroke="#8d5b1c" stroke-width="4"/>
    <path d="m0-11 3 7 8 1-6 5 2 8-7-4-7 4 2-8-6-5 8-1z" fill="#fff1b6"/>
  </g>
</svg>
